<?xml version="1.0" standalone="no"?>
<!DOCTYPE svg PUBLIC "-//W3C//DTD SVG 20010904//EN"
 "http://www.w3.org/TR/2001/REC-SVG-20010904/DTD/svg10.dtd">
<svg version="1.0" xmlns="http://www.w3.org/2000/svg"
 width="700.000000pt" height="700.000000pt" viewBox="0 0 700.000000 700.000000"
 preserveAspectRatio="xMidYMid meet">
<metadata>
Created by potrace 1.11, written by Peter Selinger 2001-2013
</metadata>
<g transform="translate(0.000000,700.000000) scale(0.100000,-0.100000)"
fill="#000000" stroke="none">
<path d="M1675 6409 c-499 -29 -957 -482 -994 -984 -4 -49 -6 -596 -5 -1215
l1 -1125 27 -100 c87 -330 330 -593 649 -701 119 -41 212 -53 406 -56 155 -3
164 1 181 61 16 56 8 589 -10 624 -16 34 -24 35 -180 40 -99 2 -134 8 -170 24
-84 37 -142 101 -170 188 -11 32 -13 239 -14 1030 -1 545 1 1058 4 1140 5 137
8 154 32 201 31 60 84 109 147 137 46 20 60 20 1811 21 971 1 1821 -1 1890 -4
139 -7 162 -15 228 -78 51 -49 81 -108 88 -174 8 -71 11 -3447 3 -3613 -7
-150 -19 -185 -92 -252 -55 -50 -88 -68 -146 -78 -58 -10 -2273 -10 -2332 0
-94 15 -187 91 -226 182 -18 44 -23 335 -23 1436 l-1 639 -52 -7 c-258 -32
-477 -181 -586 -397 -82 -165 -80 -139 -77 -943 2 -693 3 -712 24 -785 73
-254 186 -434 377 -597 132 -112 308 -197 498 -239 63 -15 193 -17 1077 -18
1180 -1 1343 3 1450 33 148 43 308 123 406 202 140 114 277 290 340 439 31 74
83 263 84 305 5 215 3 3557 -1 3645 -24 423 -306 801 -714 957 -187 72 -29 67
-2025 67 -987 1 -1844 -2 -1905 -5z"/>
<path d="M3901 5424 c-238 -40 -458 -154 -636 -329 -176 -173 -292 -380 -351
-632 -14 -60 -17 -198 -21 -1154 -3 -749 -2 -1093 6 -1107 10 -18 14 -19 83
-6 109 20 144 32 240 81 87 45 187 130 250 213 37 49 93 164 112 232 23 81 25
147 31 913 l4 690 26 63 c33 81 62 126 114 180 94 97 210 146 341 144 214 -2
392 -136 460 -345 28 -89 17 -243 -25 -333 -43 -93 -155 -200 -253 -242 -77
-33 -118 -39 -298 -41 -196 -3 -225 -11 -246 -69 -9 -27 -13 -110 -13 -302 0
-234 2 -269 18 -297 30 -55 42 -58 265 -55 158 1 226 6 303 22 460 94 826 427
949 864 11 42 24 97 28 124 12 80 7 373 -7 432 -39 167 -113 338 -199 460 -59
84 -220 245 -297 296 -135 90 -239 137 -401 179 -124 33 -349 42 -483 19z"/>
</g>
</svg>
