<?xml version="1.0" standalone="no"?>
<!DOCTYPE svg PUBLIC "-//W3C//DTD SVG 20010904//EN"
 "http://www.w3.org/TR/2001/REC-SVG-20010904/DTD/svg10.dtd">
<svg version="1.0" xmlns="http://www.w3.org/2000/svg"
 width="1500.000000pt" height="1500.000000pt" viewBox="0 0 1500.000000 1500.000000"
 preserveAspectRatio="xMidYMid meet">
<metadata>
Created by potrace 1.11, written by Peter Selinger 2001-2013
</metadata>
<g transform="translate(0.000000,1500.000000) scale(0.100000,-0.100000)"
fill="#000000" stroke="none">
<path d="M4450 12353 c-193 -11 -392 -56 -579 -129 -432 -169 -792 -493 -1010
-909 -64 -122 -140 -324 -167 -446 -2 -10 -7 -29 -10 -41 -3 -13 -13 -70 -22
-128 -15 -95 -16 -295 -17 -2025 0 -2106 -3 -2011 61 -2244 112 -407 361 -754
713 -991 122 -82 366 -195 489 -226 202 -51 310 -62 622 -64 157 -1 294 -2
305 -2 11 0 25 0 30 1 11 1 15 1264 5 1275 -3 2 -127 6 -275 9 -149 2 -283 7
-300 11 -157 36 -318 199 -354 357 -7 29 -11 702 -11 1949 0 2082 -3 1958 57
2071 37 68 125 157 192 193 112 60 -125 56 3322 56 3137 0 3166 0 3230 -20
167 -51 297 -195 328 -364 16 -85 16 -6301 0 -6377 -26 -123 -115 -244 -230
-313 -118 -71 30 -66 -2143 -66 -2191 0 -2039 -5 -2157 71 -113 73 -183 169
-217 294 -17 67 -18 142 -18 1773 1 937 -2 1709 -5 1714 -5 7 -37 9 -93 5
-215 -16 -421 -86 -608 -207 -34 -23 -65 -44 -68 -48 -3 -4 -21 -19 -40 -33
-33 -25 -126 -117 -167 -166 -10 -12 -25 -30 -34 -41 -27 -31 -104 -153 -128
-200 -38 -75 -88 -214 -105 -292 -9 -41 -19 -88 -23 -105 -4 -16 -8 -527 -10
-1135 -2 -1049 -1 -1112 17 -1235 11 -71 25 -150 31 -175 6 -25 12 -52 14 -60
9 -42 61 -193 87 -255 25 -61 40 -92 92 -190 12 -23 87 -145 98 -160 5 -5 29
-39 55 -75 65 -91 282 -305 382 -379 183 -135 408 -248 598 -302 164 -46 235
-59 376 -72 182 -17 3738 -15 3887 2 188 21 431 93 610 179 89 43 217 118 246
144 11 10 24 18 28 18 13 0 150 113 229 189 186 179 370 448 442 646 10 28 22
55 26 60 9 12 74 235 84 285 40 219 39 76 39 3310 1 3214 2 3135 -41 3335 -8
39 -16 75 -17 80 -7 29 -50 163 -59 185 -5 14 -11 31 -13 38 -14 67 -207 403
-288 501 -95 114 -227 245 -321 318 -129 100 -306 203 -440 257 -38 16 -83 34
-100 42 -48 20 -260 74 -359 92 -81 14 -416 16 -3156 16 -1686 1 -3085 0
-3110 -1z"/>
<path d="M8319 10676 c-2 -2 -31 -7 -64 -10 -89 -10 -237 -43 -350 -78 -102
-31 -298 -111 -325 -133 -8 -6 -35 -22 -60 -34 -257 -130 -554 -410 -743 -701
-62 -96 -177 -319 -177 -344 0 -9 -5 -16 -12 -16 -6 0 -8 -3 -5 -7 4 -3 3 -11
-2 -17 -8 -10 -74 -210 -76 -231 -1 -5 -4 -19 -8 -31 -6 -18 -30 -136 -42
-214 -17 -104 -20 -393 -20 -1985 l0 -1800 35 0 c197 3 436 72 604 173 37 23
72 42 77 42 5 0 9 4 9 9 0 5 8 12 18 15 16 6 35 22 132 110 102 93 187 204
257 336 37 68 89 199 98 243 2 9 6 21 9 25 2 4 12 50 22 102 16 86 18 207 20
1315 1 671 5 1231 8 1245 3 14 10 45 15 70 67 307 332 566 641 627 99 19 287
9 360 -20 8 -3 33 -11 55 -18 184 -55 391 -254 468 -449 51 -130 72 -293 53
-407 -3 -18 -8 -46 -11 -63 -9 -49 -55 -169 -86 -222 -122 -207 -335 -356
-579 -405 -14 -3 -191 -7 -395 -9 -203 -3 -376 -7 -382 -9 -10 -3 -13 -141
-13 -640 l0 -636 423 4 c232 2 442 7 467 11 90 13 266 47 300 59 19 6 37 12
40 12 24 5 119 38 175 60 550 216 977 630 1198 1160 22 53 61 162 73 205 18
66 36 145 44 200 6 36 13 76 15 90 25 139 25 429 -1 590 -38 242 -105 449
-216 665 -27 54 -92 164 -110 190 -174 238 -303 373 -493 515 -144 108 -263
175 -465 262 -98 43 -334 109 -440 124 -25 3 -61 8 -80 11 -44 7 -455 15 -461
9z"/>
</g>
</svg>
