<svg width="3809.5" height="3809.5" version="1.1" viewBox="0 0 3809.5 3809.5" xmlns="http://www.w3.org/2000/svg">
 <g transform="translate(1.5556e-6 35.405)">
  <path transform="translate(42.485 92.052)" d="m1863.5 587.31c-805.08 0-805.08 6e-5 -838.1 7.1367-99.768 21.566-179.43 64.92-250.16 136.15-67.838 68.315-110.7 148.85-131.21 246.55-7.1992 34.286-7.1992 34.285-7.1992 538.41s1e-3 504.13 7.1094 537.14c3.9095 18.159 10.617 43.263 14.906 55.789 29.821 87.082 89.923 166.31 164.69 217.1 69.713 47.357 139.81 71.132 224.72 76.219 23.746 1.4224 65.182 2.5973 92.082 2.6113 48.908 0.025 48.908 0.025 48.254-156.8-0.6543-156.83-0.6536-156.83-51.447-155.99-66.721 1.1021-90.751-1.8388-115.3-14.111-34.52-17.258-59.973-48.879-70.16-87.16-5.6891-21.378-5.5102-966.05 0.1875-990.23 11.547-48.99 50.109-88.075 97.652-98.977 7.7229-1.7708 271.24-2.632 812.7-2.6523 873.21-0.0348 811.46-1.0749 842.84 14.174 17.068 8.2933 45.431 35.62 53.604 51.643 3.1716 6.2186 8.1974 17.647 11.168 25.396 5.4011 14.09 5.4021 14.091 6.0606 816.48 0.7261 884.72 1.966 814.58-15.029 849.45-10.449 21.435-34.282 45.263-55.699 55.688-34.407 16.746 3.4386 15.656-541.89 15.615-542.95-0.041-510.5 0.8616-542.12-15.098-32.54-16.426-61.135-53.365-68.496-88.482-2.0042-9.5619-2.8223-138.38-2.8223-444.93 0-237.31-0.8566-432-1.9043-432.64-3.9957-2.4589-48.386 3.7205-72.855 10.143-121.7 31.941-213.85 133.27-234.08 257.4-2.8445 17.451-3.5193 74.639-3.5293 298.48-0.01 175.22 0.9544 284.57 2.6133 297.8 7.1356 56.908 22.724 107.71 49.656 161.82 28.674 57.607 64.621 104 115 148.41 71.574 63.096 174.4 107.91 268.28 116.93 11.175 1.073 238.03 1.7705 504.13 1.5547 483.81-0.3952 483.81-0.3951 520.91-8.5879 97.783-21.593 174.42-61.926 241.81-127.26 73.293-71.058 116.27-149.15 139.37-253.23 8.3888-37.81 8.3886-37.809 8.3886-836.54 0-798.73 0-798.73-8.1894-837.07-21.05-98.552-65.156-180.43-134.03-248.82-67.533-67.055-144.12-108.72-241.27-131.26-35.556-8.2494-35.555-8.25-840.63-8.25zm261.38 423.65c-84.55-0.384-166.39 19.413-241.06 58.684-47.777 25.126-81.044 49.042-119.94 86.225-70.409 67.312-123.38 157.45-147.94 251.76-17.301 66.423-16.097 28.01-17.082 545.4-0.8932 469.21-0.8927 469.21 4.8926 469.16 15.146-0.1218 59.064-8.1025 80.924-14.705 27.768-8.3869 72.569-30.792 95.02-47.52 19.529-14.55 51.661-46.036 66.004-64.676 24.626-32.003 43.222-71.081 55.502-116.63 7.9348-29.434 7.9344-29.435 9.3418-351.97 1.328-304.34 1.6742-323.47 6.1289-339.05 30.343-106.1 124.4-173.75 225.93-162.48 76.443 8.4828 141.63 56.49 171.78 126.52 12.603 29.267 16.049 46.716 16.133 81.68 0.078 32.61-3.1758 50.809-13.721 76.721-21.57 53.002-65.375 96.539-118.82 118.09-37.273 15.03-45.221 15.889-147.17 15.938-92.064 0.044-92.062 0.045-92.062 157.39 0 157.35-3e-4 157.35 97.142 156.07 106.95-1.4017 124.13-2.6743 168.53-12.48 158.94-35.103 294.45-138.54 364.32-278.08 19.246-38.438 29.303-65.211 39.113-104.13 10.734-42.579 13.866-64.859 15.719-111.75 3.4588-87.538-15.22-171.88-56.248-253.97-56.891-113.83-158.01-205.39-278.04-251.76-23.143-8.9406-76.459-23.625-99.104-27.295-28.621-4.6383-57.106-7.0087-85.289-7.1367z" stroke-width="2.5397"/>
 </g>
</svg>
